<svg xmlns="http://www.w3.org/2000/svg" version="1.1" xmlns:xlink="http://www.w3.org/1999/xlink" xmlns:svgjs="http://svgjs.dev/svgjs" width="1000" height="995" viewBox="0 0 1000 995"><g transform="matrix(1,0,0,1,-0.4234352144122795,0.40283400809715886)"><svg viewBox="0 0 248 247" data-background-color="#f9f9f9" preserveAspectRatio="xMidYMid meet" height="995" width="1000" xmlns="http://www.w3.org/2000/svg" xmlns:xlink="http://www.w3.org/1999/xlink"><g id="tight-bounds" transform="matrix(1,0,0,1,0.1050119331742394,-0.09999999999999432)"><svg viewBox="0 0 247.78997613365152 247.2" height="247.2" width="247.78997613365152"><g><svg viewBox="0 0 247.78997613365152 247.2" height="247.2" width="247.78997613365152"><g><svg viewBox="0 0 247.78997613365152 247.2" height="247.2" width="247.78997613365152"><g id="textblocktransform"><svg viewBox="0 0 247.78997613365152 247.2" height="247.2" width="247.78997613365152" id="textblock"><g><svg viewBox="0 0 247.78997613365152 247.2" height="247.2" width="247.78997613365152"><g transform="matrix(1,0,0,1,0,0)"><svg width="247.78997613365152" viewBox="0 -35.8 42 41.900000000000006" height="247.2" data-palette-color="#030303"><path d="M30.55-2.15L42-2.15 42 0 23.95 0 23.95 6.1 18.05 6.1 18.05 0 0 0 0-2.15 11.4-2.15Q7.35-4.55 4.98-8.63 2.6-12.7 2.6-17.75L2.6-17.75Q2.6-25.45 7.9-30.63 13.2-35.8 21-35.8 28.8-35.8 34.1-30.63 39.4-25.45 39.4-17.75L39.4-17.75Q39.4-12.75 37.02-8.63 34.65-4.5 30.55-2.15L30.55-2.15ZM18.05-5.4L18.05-11 23.95-11 23.95-5.4Q28.1-6.4 30.73-9.83 33.35-13.25 33.35-18.13 33.35-23 29.78-26.7 26.2-30.4 21-30.4 15.8-30.4 12.23-26.7 8.65-23 8.65-18.13 8.65-13.25 11.28-9.83 13.9-6.4 18.05-5.4L18.05-5.4Z" opacity="1" transform="matrix(1,0,0,1,0,0)" fill="#000000" class="wordmark-text-0" data-fill-palette-color="primary" id="text-0"></path></svg></g></svg></g></svg></g></svg></g></svg></g><defs></defs></svg><rect width="247.78997613365152" height="247.2" fill="none" stroke="none" visibility="hidden"></rect></g></svg></g></svg>